<svg xmlns="http://www.w3.org/2000/svg" width="760" height="398" viewBox="0 0 760 398" font-family="sans-serif" font-size="12">
<rect width="100%" height="100%" fill="white"/>
<text x="380.0" y="22" text-anchor="middle" font-size="15" font-weight="bold">Iteration 2, jeu 1 : les idees seules trompent (socle = exemples_cibles)</text>
<text x="322" y="56" text-anchor="end">socle</text><rect x="330" y="43" width="171.4" height="18" fill="#d62728"/><text x="507.4" y="56">9/21</text>
<text x="322" y="82" text-anchor="end">lexical</text><rect x="330" y="69" width="152.4" height="18" fill="#d62728"/><text x="488.4" y="82">8/21</text>
<text x="322" y="108" text-anchor="end">recall8</text><rect x="330" y="95" width="171.4" height="18" fill="#d62728"/><text x="507.4" y="108">9/21</text>
<text x="322" y="134" text-anchor="end">carte_mots</text><rect x="330" y="121" width="190.5" height="18" fill="#d62728"/><text x="526.5" y="134">10/21</text>
<text x="322" y="160" text-anchor="end">top3_direct</text><rect x="330" y="147" width="190.5" height="18" fill="#d62728"/><text x="526.5" y="160">10/21</text>
<text x="322" y="186" text-anchor="end">indice_url</text><rect x="330" y="173" width="171.4" height="18" fill="#d62728"/><text x="507.4" y="186">9/21</text>
<text x="322" y="212" text-anchor="end">lexical+recall8</text><rect x="330" y="199" width="152.4" height="18" fill="#d62728"/><text x="488.4" y="212">8/21</text>
<text x="322" y="238" text-anchor="end">lexical+carte_mots</text><rect x="330" y="225" width="190.5" height="18" fill="#d62728"/><text x="526.5" y="238">10/21</text>
<text x="322" y="264" text-anchor="end">lexical+top3_direct</text><rect x="330" y="251" width="247.6" height="18" fill="#d62728"/><text x="583.6" y="264">13/21</text>
<text x="322" y="290" text-anchor="end">lexical+indice_url</text><rect x="330" y="277" width="152.4" height="18" fill="#d62728"/><text x="488.4" y="290">8/21</text>
<text x="322" y="316" text-anchor="end">recall8+carte_mots</text><rect x="330" y="303" width="209.5" height="18" fill="#d62728"/><text x="545.5" y="316">11/21</text>
<text x="322" y="342" text-anchor="end">recall8+top3_direct</text><rect x="330" y="329" width="209.5" height="18" fill="#d62728"/><text x="545.5" y="342">11/21</text>
<text x="380.0" y="388" text-anchor="middle" fill="#444">lexical seule degrade (8/21) et devient decisive en paire avec top3_direct (13/21) ; toutes ensemble : 14/21.</text></svg>
